<svg id="Camada_1" data-name="Camada 1" xmlns="http://www.w3.org/2000/svg" viewBox="0 0 652.31 235.92"><defs><style>.cls-1,.cls-2,.cls-4{fill:#6e6e6d;}.cls-2{font-size:77.8px;font-family:BlatantBold, Blatant;}.cls-3{letter-spacing:0em;}.cls-4{font-size:24.91px;font-family:Montserrat-Regular, Montserrat;}.cls-5{letter-spacing:-0.01em;}.cls-6{letter-spacing:-0.01em;}.cls-7{letter-spacing:-0.01em;}.cls-8{letter-spacing:-0.01em;}.cls-9{letter-spacing:-0.03em;}.cls-10{letter-spacing:-0.02em;}.cls-11{letter-spacing:-0.01em;}.cls-12{letter-spacing:0em;}</style></defs><polygon points="111.77 81.89 115.69 44.43 146.22 20.27 156.1 63.68 152.08 100.58 111.77 81.89"/><polygon class="cls-1" points="126.32 49.52 146.22 20.27 180.71 45.44 182.53 86.58 152.08 100.58 126.32 49.52"/><polyline points="58.71 215.66 120.77 215.66 173.53 215.66 235.59 215.66 250.35 127.41 147.15 195.25 43.95 127.41"/><polyline class="cls-1" points="58.85 215.66 235.44 215.66 277.24 131.39 147.15 197.68 17.06 131.39"/><text class="cls-2" transform="translate(306.7 108.79)">METIIS<tspan class="cls-3" x="231.3" y="0">T</tspan><tspan x="272.84" y="0">O</tspan></text><text class="cls-4" transform="translate(309.54 145.18)">INTER<tspan class="cls-5" x="76.75" y="0">A</tspan><tspan class="cls-6" x="94.36" y="0">C</tspan><tspan x="112.04" y="0">T</tspan><tspan class="cls-7" x="126.34" y="0">I</tspan><tspan class="cls-8" x="133.66" y="0">V</tspan><tspan x="150.68" y="0">E</tspan><tspan x="0" y="29.89">DIGI</tspan><tspan class="cls-9" x="54.87" y="29.89">T</tspan><tspan x="68.3" y="29.89">AL </tspan><tspan class="cls-6" x="107.36" y="29.89">E</tspan><tspan class="cls-10" x="123.8" y="29.89">X</tspan><tspan class="cls-5" x="139.54" y="29.89">P</tspan><tspan x="157.18" y="29.89">ERIENCE</tspan><tspan x="0" y="59.78">GALLE</tspan><tspan class="cls-11" x="83.12" y="59.78">R</tspan><tspan class="cls-12" x="100.88" y="59.78">Y</tspan></text></svg>